<svg width="640" height="640" viewBox="0 0 640 640" fill="none" xmlns="http://www.w3.org/2000/svg">
  <rect width="640" height="640" rx="72" fill="#090D18"/>
  <rect x="20" y="20" width="600" height="600" rx="56" stroke="url(#paint0_linear)" stroke-opacity="0.4" stroke-width="2"/>
  <path d="M320 170C379.647 170 428 218.353 428 278C428 337.647 379.647 386 320 386C260.353 386 212 337.647 212 278C212 218.353 260.353 170 320 170Z" fill="url(#paint1_radial)"/>
  <path d="M166 492C166 428.487 217.487 377 281 377H359C422.513 377 474 428.487 474 492V510C474 515.523 469.523 520 464 520H176C170.477 520 166 515.523 166 510V492Z" fill="url(#paint2_linear)"/>
  <path d="M74 106H566" stroke="white" stroke-opacity="0.08" stroke-width="2"/>
  <path d="M74 534H566" stroke="white" stroke-opacity="0.08" stroke-width="2"/>
  <path d="M106 74V566" stroke="white" stroke-opacity="0.08" stroke-width="2"/>
  <path d="M534 74V566" stroke="white" stroke-opacity="0.08" stroke-width="2"/>
  <defs>
    <linearGradient id="paint0_linear" x1="320" y1="20" x2="320" y2="620" gradientUnits="userSpaceOnUse">
      <stop stop-color="white" stop-opacity="0.18"/>
      <stop offset="1" stop-color="white" stop-opacity="0.04"/>
    </linearGradient>
    <radialGradient id="paint1_radial" cx="0" cy="0" r="1" gradientUnits="userSpaceOnUse" gradientTransform="translate(320 248) rotate(90) scale(168)">
      <stop stop-color="#F8FAFC"/>
      <stop offset="1" stop-color="#475569"/>
    </radialGradient>
    <linearGradient id="paint2_linear" x1="320" y1="377" x2="320" y2="520" gradientUnits="userSpaceOnUse">
      <stop stop-color="#CBD5E1"/>
      <stop offset="1" stop-color="#1E293B"/>
    </linearGradient>
  </defs>
</svg>
