<svg width="280" height="280" viewBox="0 0 280 280" fill="none" xmlns="http://www.w3.org/2000/svg">
  <rect width="280" height="280" rx="32" fill="#F8FAFC"/>
  <rect x="20" y="20" width="72" height="72" rx="12" fill="#0F172A"/>
  <rect x="32" y="32" width="48" height="48" rx="8" fill="#F8FAFC"/>
  <rect x="44" y="44" width="24" height="24" rx="6" fill="#0F172A"/>
  <rect x="188" y="20" width="72" height="72" rx="12" fill="#0F172A"/>
  <rect x="200" y="32" width="48" height="48" rx="8" fill="#F8FAFC"/>
  <rect x="212" y="44" width="24" height="24" rx="6" fill="#0F172A"/>
  <rect x="20" y="188" width="72" height="72" rx="12" fill="#0F172A"/>
  <rect x="32" y="200" width="48" height="48" rx="8" fill="#F8FAFC"/>
  <rect x="44" y="212" width="24" height="24" rx="6" fill="#0F172A"/>
  <rect x="116" y="20" width="20" height="20" rx="4" fill="#0F172A"/>
  <rect x="148" y="20" width="20" height="20" rx="4" fill="#0F172A"/>
  <rect x="116" y="52" width="20" height="20" rx="4" fill="#0F172A"/>
  <rect x="148" y="52" width="20" height="20" rx="4" fill="#0F172A"/>
  <rect x="116" y="84" width="52" height="20" rx="4" fill="#0F172A"/>
  <rect x="116" y="116" width="20" height="20" rx="4" fill="#0F172A"/>
  <rect x="148" y="116" width="20" height="20" rx="4" fill="#0F172A"/>
  <rect x="180" y="116" width="20" height="20" rx="4" fill="#0F172A"/>
  <rect x="212" y="116" width="48" height="20" rx="4" fill="#0F172A"/>
  <rect x="116" y="148" width="20" height="20" rx="4" fill="#0F172A"/>
  <rect x="148" y="148" width="52" height="20" rx="4" fill="#0F172A"/>
  <rect x="212" y="148" width="20" height="20" rx="4" fill="#0F172A"/>
  <rect x="244" y="148" width="16" height="20" rx="4" fill="#0F172A"/>
  <rect x="116" y="180" width="52" height="20" rx="4" fill="#0F172A"/>
  <rect x="180" y="180" width="20" height="20" rx="4" fill="#0F172A"/>
  <rect x="212" y="180" width="20" height="20" rx="4" fill="#0F172A"/>
  <rect x="116" y="212" width="20" height="20" rx="4" fill="#0F172A"/>
  <rect x="148" y="212" width="20" height="20" rx="4" fill="#0F172A"/>
  <rect x="180" y="212" width="48" height="20" rx="4" fill="#0F172A"/>
  <rect x="244" y="212" width="16" height="20" rx="4" fill="#0F172A"/>
  <rect x="116" y="244" width="80" height="16" rx="4" fill="#0F172A"/>
  <rect x="212" y="244" width="48" height="16" rx="4" fill="#0F172A"/>
</svg>
